<svg width="40" height="40" viewBox="0 0 40 40" fill="none" xmlns="http://www.w3.org/2000/svg">
<path fill-rule="evenodd" clip-rule="evenodd" d="M28.32 9.00412L30.8256 10.9993C31.0675 11.227 31.204 11.5451 31.2021 11.8774C31.2003 12.2097 31.0605 12.5263 30.816 12.7513L28.912 15.0297L22.4336 22.7561C22.3202 22.8859 22.1693 22.9771 22.0016 23.0169L18.6416 23.7785C18.2008 23.8006 17.817 23.4801 17.76 23.0425V19.5897C17.7714 19.4232 17.8384 19.2654 17.9504 19.1417L24.3088 11.9529L26.4912 9.34651C26.9229 8.78056 27.7127 8.63271 28.32 9.00412Z" stroke="black" stroke-width="2" stroke-linecap="round" stroke-linejoin="round"/>
<mask id="path-2-inside-1_7_385" fill="white">
<path d="M19.2529 12.9898C19.9156 12.9898 20.4529 12.4526 20.4529 11.7898C20.4529 11.1271 19.9156 10.5898 19.2529 10.5898V12.9898ZM14.7729 11.7898V10.5898H14.77L14.7729 11.7898ZM8.80011 17.7899H10.0001V17.7872L8.80011 17.7899ZM8.80011 26.7899L10.0001 26.7925V26.7899H8.80011ZM14.7729 32.7899L14.77 33.9899H14.7729V32.7899ZM23.7329 32.7899V33.9899H23.7358L23.7329 32.7899ZM29.7057 26.7899H28.5057V26.7925L29.7057 26.7899ZM30.9057 20.7899C30.9057 20.127 30.3684 19.5899 29.7057 19.5899C29.043 19.5899 28.5057 20.127 28.5057 20.7899H30.9057ZM25.4182 11.4951C25.1652 10.8825 24.4636 10.5909 23.851 10.8438C23.2383 11.0967 22.9468 11.7984 23.1998 12.4109L25.4182 11.4951ZM29.1711 16.1952C29.8182 16.0521 30.2268 15.4116 30.0838 14.7644C29.9407 14.1173 29.3003 13.7087 28.6531 13.8517L29.1711 16.1952ZM13.2801 27.0907C12.6174 27.0907 12.0801 27.6278 12.0801 28.2907C12.0801 28.9534 12.6174 29.4907 13.2801 29.4907V27.0907ZM25.2273 29.4907C25.89 29.4907 26.4273 28.9534 26.4273 28.2907C26.4273 27.6278 25.89 27.0907 25.2273 27.0907V29.4907ZM19.2529 10.5898H14.7729V12.9898H19.2529V10.5898ZM14.77 10.5898C10.8014 10.5994 7.59162 13.8238 7.60011 17.7925L10.0001 17.7872C9.99445 15.1439 12.1324 12.9962 14.7758 12.9898L14.77 10.5898ZM7.60011 17.7899V26.7899H10.0001V17.7899H7.60011ZM7.60011 26.7872C7.59162 30.7558 10.8014 33.9803 14.77 33.9899L14.7758 31.5899C12.1324 31.5835 9.99445 29.4358 10.0001 26.7925L7.60011 26.7872ZM14.7729 33.9899H23.7329V31.5899H14.7729V33.9899ZM23.7358 33.9899C27.7044 33.9803 30.9142 30.7558 30.9057 26.7872L28.5057 26.7925C28.5113 29.4358 26.3734 31.5835 23.73 31.5899L23.7358 33.9899ZM30.9057 26.7899V20.7899H28.5057V26.7899H30.9057ZM23.1998 12.4109C23.5116 13.1664 24.1478 14.237 25.0987 15.0643C26.0711 15.9106 27.4687 16.5715 29.1711 16.1952L28.6531 13.8517C27.9091 14.0162 27.2627 13.7659 26.674 13.2538C26.0636 12.7226 25.6215 11.9877 25.4182 11.4951L23.1998 12.4109ZM13.2801 29.4907H25.2273V27.0907H13.2801V29.4907Z"/>
</mask>
<path d="M19.2529 10.5898H17.7529V12.9898H19.2529H20.7529V10.5898H19.2529ZM28.5057 20.7899V22.2899H30.9057V20.7899V19.2899H28.5057V20.7899ZM23.1998 12.4109L23.7722 13.7974L25.9906 12.8816L25.4182 11.4951L24.8458 10.1086L22.6274 11.0244L23.1998 12.4109ZM28.6531 13.8517L27.1884 14.1755L27.7065 16.519L29.1711 16.1952L30.6358 15.8714L30.1177 13.5279L28.6531 13.8517ZM13.2801 29.4907H14.7801V27.0907H13.2801H11.7801V29.4907H13.2801ZM25.2273 27.0907H23.7273V29.4907H25.2273H26.7273V27.0907H25.2273ZM14.7729 11.7898L11.7729 11.797L17.7729 11.7898H14.7729ZM14.77 10.5898V7.58984L14.7628 7.58985L14.77 10.5898ZM8.80011 17.7899L8.79331 14.7899L8.80011 20.7899V17.7899ZM10.0001 17.7872H13.0001L13.0001 17.7808L10.0001 17.7872ZM8.80011 26.7899V23.7899L8.79371 29.7899L8.80011 26.7899ZM10.0001 26.7925L13.0001 26.7989V26.7925H10.0001ZM14.7729 32.7899H17.7729L11.7729 32.7827L14.7729 32.7899ZM14.77 33.9899L14.7628 36.9899H14.77V33.9899ZM23.7329 32.7899L26.7329 32.7827L20.7329 32.7899H23.7329ZM23.7358 33.9899V36.9899L23.743 36.9899L23.7358 33.9899ZM29.7057 26.7899L29.7121 29.7899L29.7057 23.7899V26.7899ZM28.5057 26.7925H25.5057L25.5057 26.7988L28.5057 26.7925ZM25.4182 11.4951L28.1912 10.3503L28.1911 10.3501L25.4182 11.4951ZM23.1998 12.4109L25.9728 11.2662L25.9727 11.2659L23.1998 12.4109ZM29.1711 16.1952L29.8187 19.1244L29.8187 19.1244L29.1711 16.1952ZM28.6531 13.8517L28.0056 10.9224L28.0055 10.9224L28.6531 13.8517ZM14.7729 12.9898H11.7729V15.9898H14.7729V12.9898ZM7.60011 17.7925L4.60012 17.7989L4.60654 20.7991L7.60672 20.7925L7.60011 17.7925ZM14.7758 12.9898L14.783 15.9898L17.783 15.9826L17.7758 12.9826L14.7758 12.9898ZM7.60011 17.7899V14.7899H4.60011V17.7899H7.60011ZM7.60011 26.7899H4.60011V29.7899H7.60011V26.7899ZM7.60011 26.7872L7.60671 23.7872L4.60654 23.7806L4.60012 26.7808L7.60011 26.7872ZM14.7758 31.5899L17.7758 31.5971L17.783 28.5972L14.7831 28.5899L14.7758 31.5899ZM23.7329 31.5899H26.7329V28.5899H23.7329V31.5899ZM14.7729 31.5899V28.5899H11.7729V31.5899H14.7729ZM30.9057 26.7872L33.9057 26.7808L33.8993 23.7806L30.8991 23.7872L30.9057 26.7872ZM23.73 31.5899L23.7228 28.5899L20.7228 28.5972L20.73 31.5971L23.73 31.5899ZM30.9057 26.7899V29.7899H33.9057V26.7899H30.9057ZM25.0987 15.0643L27.068 12.8012L27.0678 12.801L25.0987 15.0643ZM26.674 13.2538L24.7048 15.517L24.7049 15.517L26.674 13.2538ZM19.2529 12.9898V15.9898C21.5724 15.9898 23.4529 14.1095 23.4529 11.7898H20.4529H17.4529C17.4529 10.7957 18.2588 9.98984 19.2529 9.98984V12.9898ZM20.4529 11.7898H23.4529C23.4529 9.47022 21.5724 7.58984 19.2529 7.58984V10.5898V13.5898C18.2588 13.5898 17.4529 12.784 17.4529 11.7898H20.4529ZM14.7729 11.7898H17.7729V10.5898H14.7729H11.7729V11.7898H14.7729ZM14.7729 10.5898V7.58984H14.77V10.5898V13.5898H14.7729V10.5898ZM14.77 10.5898L11.77 10.597L11.7729 11.797L14.7729 11.7898L17.7729 11.7826L17.77 10.5826L14.77 10.5898ZM8.80011 17.7899V20.7899H10.0001V17.7899V14.7899H8.80011V17.7899ZM10.0001 17.7899H13.0001V17.7872H10.0001H7.00011V17.7899H10.0001ZM10.0001 17.7872L9.99331 14.7872L8.79331 14.7899L8.80011 17.7899L8.80692 20.7899L10.0069 20.7872L10.0001 17.7872ZM8.80011 26.7899L8.79371 29.7899L9.99371 29.7925L10.0001 26.7925L10.0065 23.7925L8.80652 23.7899L8.80011 26.7899ZM10.0001 26.7925H13.0001V26.7899H10.0001H7.00011V26.7925H10.0001ZM10.0001 26.7899V23.7899H8.80011V26.7899V29.7899H10.0001V26.7899ZM14.7729 32.7899L11.7729 32.7827L11.77 33.9827L14.77 33.9899L17.77 33.9971L17.7729 32.7971L14.7729 32.7899ZM14.77 33.9899V36.9899H14.7729V33.9899V30.9899H14.77V33.9899ZM14.7729 33.9899H17.7729V32.7899H14.7729H11.7729V33.9899H14.7729ZM23.7329 32.7899H20.7329V33.9899H23.7329H26.7329V32.7899H23.7329ZM23.7329 33.9899V36.9899H23.7358V33.9899V30.9899H23.7329V33.9899ZM23.7358 33.9899L26.7358 33.9827L26.7329 32.7827L23.7329 32.7899L20.7329 32.7971L20.7358 33.9971L23.7358 33.9899ZM29.7057 26.7899V23.7899H28.5057V26.7899V29.7899H29.7057V26.7899ZM28.5057 26.7899H25.5057V26.7925H28.5057H31.5057V26.7899H28.5057ZM28.5057 26.7925L28.5121 29.7925L29.7121 29.7899L29.7057 26.7899L29.6993 23.7899L28.4993 23.7925L28.5057 26.7925ZM30.9057 20.7899H33.9057C33.9057 18.4699 32.025 16.5899 29.7057 16.5899V19.5899V22.5899C28.7118 22.5899 27.9057 21.7842 27.9057 20.7899H30.9057ZM29.7057 19.5899V16.5899C27.3864 16.5899 25.5057 18.4699 25.5057 20.7899H28.5057H31.5057C31.5057 21.7842 30.6996 22.5899 29.7057 22.5899V19.5899ZM25.4182 11.4951L28.1911 10.3501C27.3058 8.20636 24.8504 7.18572 22.7063 8.07082L23.851 10.8438L24.9957 13.6169C24.0768 13.9962 23.0246 13.5587 22.6453 12.6402L25.4182 11.4951ZM23.851 10.8438L22.7063 8.07082C20.5619 8.95603 19.5416 11.412 20.4269 13.556L23.1998 12.4109L25.9727 11.2659C26.3521 12.1847 25.9148 13.2375 24.9957 13.6169L23.851 10.8438ZM29.1711 16.1952L29.8187 19.1244C32.0836 18.6237 33.5137 16.3817 33.0131 14.1169L30.0838 14.7644L27.1545 15.4119C26.94 14.4414 27.5528 13.4805 28.5236 13.2659L29.1711 16.1952ZM30.0838 14.7644L33.0131 14.1169C32.5124 11.8521 30.2706 10.4218 28.0056 10.9224L28.6531 13.8517L29.3005 16.781C28.3299 16.9956 27.369 16.3826 27.1545 15.4119L30.0838 14.7644ZM13.2801 27.0907V24.0907C10.9608 24.0907 9.08011 25.9708 9.08011 28.2907H12.0801H15.0801C15.0801 29.2849 14.274 30.0907 13.2801 30.0907V27.0907ZM12.0801 28.2907H9.08011C9.08011 30.6103 10.9605 32.4907 13.2801 32.4907V29.4907V26.4907C14.2743 26.4907 15.0801 27.2966 15.0801 28.2907H12.0801ZM25.2273 29.4907V32.4907C27.5469 32.4907 29.4273 30.6103 29.4273 28.2907H26.4273H23.4273C23.4273 27.2966 24.2332 26.4907 25.2273 26.4907V29.4907ZM26.4273 28.2907H29.4273C29.4273 25.9707 27.5466 24.0907 25.2273 24.0907V27.0907V30.0907C24.2334 30.0907 23.4273 29.285 23.4273 28.2907H26.4273ZM19.2529 10.5898V7.58984H14.7729V10.5898V13.5898H19.2529V10.5898ZM14.7729 10.5898H11.7729V12.9898H14.7729H17.7729V10.5898H14.7729ZM14.7729 12.9898V15.9898H19.2529V12.9898V9.98984H14.7729V12.9898ZM14.77 10.5898L14.7628 7.58985C9.13762 7.60337 4.58808 12.1737 4.60012 17.7989L7.60011 17.7925L10.6001 17.7861C10.5952 15.4739 12.4652 13.5954 14.7772 13.5898L14.77 10.5898ZM7.60011 17.7925L7.60672 20.7925L10.0067 20.7872L10.0001 17.7872L9.99351 14.7872L7.59351 14.7925L7.60011 17.7925ZM10.0001 17.7872L13.0001 17.7808C12.998 16.794 13.7961 15.9922 14.783 15.9898L14.7758 12.9898L14.7686 9.98985C10.4687 10.0002 6.99091 13.4937 7.00012 17.7936L10.0001 17.7872ZM14.7758 12.9898L17.7758 12.9826L17.77 10.5826L14.77 10.5898L11.77 10.597L11.7758 12.997L14.7758 12.9898ZM7.60011 17.7899H4.60011V26.7899H7.60011H10.6001V17.7899H7.60011ZM7.60011 26.7899V29.7899H10.0001V26.7899V23.7899H7.60011V26.7899ZM10.0001 26.7899H13.0001V17.7899H10.0001H7.00011V26.7899H10.0001ZM10.0001 17.7899V14.7899H7.60011V17.7899V20.7899H10.0001V17.7899ZM7.60011 26.7872L4.60012 26.7808C4.58808 32.4059 9.1376 36.9763 14.7628 36.9899L14.77 33.9899L14.7773 30.9899C12.4652 30.9843 10.5952 29.1058 10.6001 26.7936L7.60011 26.7872ZM14.77 33.9899L17.77 33.9971L17.7758 31.5971L14.7758 31.5899L11.7758 31.5827L11.77 33.9827L14.77 33.9899ZM14.7758 31.5899L14.7831 28.5899C13.7961 28.5875 12.998 27.7857 13.0001 26.7989L10.0001 26.7925L7.00012 26.7861C6.99091 31.086 10.4687 34.5795 14.7685 34.5899L14.7758 31.5899ZM10.0001 26.7925L10.0067 23.7925L7.60671 23.7872L7.60011 26.7872L7.59352 29.7872L9.99352 29.7925L10.0001 26.7925ZM14.7729 33.9899V36.9899H23.7329V33.9899V30.9899H14.7729V33.9899ZM23.7329 33.9899H26.7329V31.5899H23.7329H20.7329V33.9899H23.7329ZM23.7329 31.5899V28.5899H14.7729V31.5899V34.5899H23.7329V31.5899ZM14.7729 31.5899H11.7729V33.9899H14.7729H17.7729V31.5899H14.7729ZM23.7358 33.9899L23.743 36.9899C29.3682 36.9763 33.9177 32.4059 33.9057 26.7808L30.9057 26.7872L27.9057 26.7936C27.9106 29.1058 26.0406 30.9843 23.7285 30.9899L23.7358 33.9899ZM30.9057 26.7872L30.8991 23.7872L28.4991 23.7925L28.5057 26.7925L28.5123 29.7925L30.9123 29.7872L30.9057 26.7872ZM28.5057 26.7925L25.5057 26.7988C25.5078 27.7857 24.7096 28.5875 23.7228 28.5899L23.73 31.5899L23.7373 34.5899C28.0372 34.5795 31.5148 31.086 31.5057 26.7861L28.5057 26.7925ZM23.73 31.5899L20.73 31.5971L20.7358 33.9971L23.7358 33.9899L26.7358 33.9827L26.73 31.5827L23.73 31.5899ZM30.9057 26.7899H33.9057V20.7899H30.9057H27.9057V26.7899H30.9057ZM28.5057 20.7899H25.5057V26.7899H28.5057H31.5057V20.7899H28.5057ZM28.5057 26.7899V29.7899H30.9057V26.7899V23.7899H28.5057V26.7899ZM23.1998 12.4109L20.4268 13.5557C20.8741 14.6392 21.7528 16.1299 23.1295 17.3276L25.0987 15.0643L27.0678 12.801C26.5427 12.3442 26.1492 11.6935 25.9728 11.2662L23.1998 12.4109ZM25.0987 15.0643L23.1293 17.3274C24.5769 18.5872 26.9134 19.7667 29.8187 19.1244L29.1711 16.1952L28.5236 13.2659C28.2296 13.3309 28.0009 13.3047 27.795 13.2373C27.5668 13.1625 27.3172 13.0181 27.068 12.8012L25.0987 15.0643ZM28.6531 13.8517L28.0055 10.9224C28.0687 10.9085 28.1547 10.8983 28.256 10.9031C28.3573 10.908 28.4501 10.9267 28.5276 10.9518C28.6784 11.0005 28.7163 11.0541 28.6432 10.9905L26.674 13.2538L24.7049 15.517C25.7838 16.4558 27.3689 17.208 29.3006 16.781L28.6531 13.8517ZM26.674 13.2538L28.6433 10.9906C28.5742 10.9305 28.4757 10.8221 28.3732 10.6715C28.2702 10.5202 28.2095 10.3947 28.1912 10.3503L25.4182 11.4951L22.6452 12.6399C22.9843 13.4613 23.6691 14.6158 24.7048 15.517L26.674 13.2538ZM13.2801 29.4907V32.4907H25.2273V29.4907V26.4907H13.2801V29.4907ZM25.2273 27.0907V24.0907H13.2801V27.0907V30.0907H25.2273V27.0907Z" fill="black" mask="url(#path-2-inside-1_7_385)"/>
</svg>
