<svg width="76" height="97" viewBox="0 0 76 97" fill="none" xmlns="http://www.w3.org/2000/svg">
<path d="M31 13.5H56C66.7696 13.5 75.5 22.2304 75.5 33V71.3701C75.4997 80.5195 64.7521 85.3279 57.9395 79.4219L57.6182 79.1318C54.7778 76.4767 51.0346 75.0001 47.1465 75H31C20.2304 75 11.5 66.2696 11.5 55.5V33C11.5 22.2304 20.2304 13.5 31 13.5Z" stroke="black"/>
<path d="M6 27C6 15.9543 14.9543 7 26 7H51C62.0457 7 71 15.9543 71 27V65.3697C71 75.1021 59.3862 80.1436 52.2764 73.4975C49.5286 70.9289 45.9076 69.5 42.1461 69.5H26C14.9543 69.5 6 60.5457 6 49.5V27Z" fill="#4570FF"/>
<path d="M20 0.5H45C55.7696 0.5 64.5 9.23045 64.5 20V58.3701C64.4997 67.5195 53.7521 72.3279 46.9395 66.4219L46.6182 66.1318C43.7778 63.4767 40.0346 62.0001 36.1465 62H20C9.23045 62 0.5 53.2696 0.5 42.5V20C0.5 9.23045 9.23045 0.5 20 0.5Z" stroke="black"/>
</svg>
