<svg width="65" height="37" viewBox="0 0 65 37" fill="none" xmlns="http://www.w3.org/2000/svg">
<path d="M34.6982 0.5H36.7422C42.8675 0.500033 47.8328 5.46551 47.833 11.5908V13.9951C47.833 15.9792 48.6708 17.8647 50.1279 19.1934L50.4277 19.4512L51.7578 20.5342C55.7173 23.7568 53.4383 30.167 48.333 30.167H23.8105C17.9593 30.167 15.8497 22.5246 20.7158 19.4863L20.9521 19.3447C23.0763 18.1386 24.3887 15.8841 24.3887 13.4414V10.8096C24.3887 5.11584 29.0045 0.500155 34.6982 0.5Z" stroke="black"/>
<path d="M36.1123 29.9872C37.7809 29.9872 39.0247 29.9874 39.9385 30.0057C40.6936 30.0209 41.1936 30.0503 41.5117 30.0936C41.4514 30.1599 41.3848 30.238 41.3037 30.3241L41.168 30.4686V30.6669C41.1679 33.6761 38.8764 36.0641 36.1123 36.0643C34.7617 36.0643 33.5032 35.3528 32.5684 34.2235C31.6334 33.094 31.0557 31.5833 31.0557 30.077V30.076C31.127 30.0709 31.202 30.065 31.2803 30.0604C31.8961 30.0241 32.6856 30.0051 33.5303 29.996L36.1123 29.9872Z" stroke="black"/>
</svg>
